<svg width="34" height="28" viewBox="0 0 34 28" fill="none" xmlns="http://www.w3.org/2000/svg">
<path fill-rule="evenodd" clip-rule="evenodd" d="M31.0435 21.7H20.8398C21.2796 24.0107 22.7416 25.6004 24.0927 26.6H25.8696C26.0656 26.6 26.2536 26.6737 26.3922 26.805C26.5308 26.9363 26.6087 27.1143 26.6087 27.3C26.6087 27.4857 26.5308 27.6637 26.3922 27.795C26.2536 27.9263 26.0656 28 25.8696 28H8.13043C7.93441 28 7.7464 27.9263 7.60779 27.795C7.46918 27.6637 7.3913 27.4857 7.3913 27.3C7.3913 27.1143 7.46918 26.9363 7.60779 26.805C7.7464 26.6737 7.93441 26.6 8.13043 26.6H9.90656C11.257 25.6004 12.7204 24.0107 13.1595 21.7H2.95652C2.1724 21.7 1.4204 21.405 0.865945 20.8799C0.31149 20.3548 0 19.6426 0 18.9V2.8C0 2.05739 0.31149 1.3452 0.865945 0.820101C1.4204 0.294999 2.1724 0 2.95652 0H31.0435C31.8276 0 32.5796 0.294999 33.1341 0.820101C33.6885 1.3452 34 2.05739 34 2.8V18.9C34 19.6426 33.6885 20.3548 33.1341 20.8799C32.5796 21.405 31.8276 21.7 31.0435 21.7ZM12.1195 26.6H21.8797C20.7008 25.4226 19.6513 23.8168 19.3231 21.7H14.6762C14.348 23.8168 13.2984 25.4226 12.1195 26.6ZM32.5217 2.8C32.5217 2.4287 32.366 2.0726 32.0888 1.81005C31.8115 1.5475 31.4355 1.4 31.0435 1.4H2.95652C2.56446 1.4 2.18846 1.5475 1.91123 1.81005C1.63401 2.0726 1.47826 2.4287 1.47826 2.8V16.1H32.5217V2.8ZM32.5217 17.5H1.47826V18.9C1.47826 19.2713 1.63401 19.6274 1.91123 19.8899C2.18846 20.1525 2.56446 20.3 2.95652 20.3H31.0435C31.4355 20.3 31.8115 20.1525 32.0888 19.8899C32.366 19.6274 32.5217 19.2713 32.5217 18.9V17.5ZM17 19.6C16.804 19.6 16.616 19.5263 16.4774 19.395C16.3387 19.2637 16.2609 19.0857 16.2609 18.9C16.2609 18.7143 16.3387 18.5363 16.4774 18.405C16.616 18.2737 16.804 18.2 17 18.2C17.196 18.2 17.384 18.2737 17.5226 18.405C17.6613 18.5363 17.7391 18.7143 17.7391 18.9C17.7391 19.0857 17.6613 19.2637 17.5226 19.395C17.384 19.5263 17.196 19.6 17 19.6Z" fill="black"/>
</svg>
