<svg width="41" height="38" viewBox="0 0 41 38" fill="none" xmlns="http://www.w3.org/2000/svg">
<path d="M38.7999 26.85L26.7999 5.25C25.1874 2.34375 22.9562 0.75 20.4999 0.75C18.0437 0.75 15.8124 2.34375 14.1999 5.25L2.1999 26.85C0.681147 29.6063 0.512397 32.25 1.73115 34.3313C2.9499 36.4125 5.3499 37.5563 8.4999 37.5563H32.4999C35.6499 37.5563 38.0499 36.4125 39.2687 34.3313C40.4874 32.25 40.3187 29.5875 38.7999 26.85ZM19.0937 13.875C19.0937 13.1063 19.7312 12.4688 20.4999 12.4688C21.2687 12.4688 21.9062 13.1063 21.9062 13.875V23.25C21.9062 24.0188 21.2687 24.6563 20.4999 24.6563C19.7312 24.6563 19.0937 24.0188 19.0937 23.25V13.875ZM21.8312 30.2062L21.5499 30.4313C21.4374 30.5063 21.3249 30.5625 21.2124 30.6C21.0999 30.6563 20.9874 30.6938 20.8562 30.7125C20.7437 30.7313 20.6124 30.75 20.4999 30.75C20.3874 30.75 20.2562 30.7313 20.1249 30.7125C20.0074 30.6921 19.8936 30.6542 19.7874 30.6C19.6679 30.559 19.5544 30.5023 19.4499 30.4313L19.1687 30.2062C18.8312 29.85 18.6249 29.3625 18.6249 28.875C18.6249 28.3875 18.8312 27.9 19.1687 27.5438L19.4499 27.3188C19.5624 27.2438 19.6749 27.1875 19.7874 27.15C19.8999 27.0938 20.0124 27.0563 20.1249 27.0375C20.3687 26.9813 20.6312 26.9813 20.8562 27.0375C20.9874 27.0563 21.0999 27.0938 21.2124 27.15C21.3249 27.1875 21.4374 27.2438 21.5499 27.3188L21.8312 27.5438C22.1687 27.9 22.3749 28.3875 22.3749 28.875C22.3749 29.3625 22.1687 29.85 21.8312 30.2062Z" fill="#CB1313"/>
</svg>
