<svg width="32" height="32" viewBox="0 0 32 32" fill="none" xmlns="http://www.w3.org/2000/svg">
<path d="M29.3334 11.0267V5.64001C29.3334 3.52001 28.4801 2.66667 26.3601 2.66667H20.9734C18.8534 2.66667 18.0001 3.52001 18.0001 5.64001V11.0267C18.0001 13.1467 18.8534 14 20.9734 14H26.3601C28.4801 14 29.3334 13.1467 29.3334 11.0267ZM14.0001 11.36V5.30667C14.0001 3.42667 13.1468 2.66667 11.0268 2.66667H5.64008C3.52008 2.66667 2.66675 3.42667 2.66675 5.30667V11.3467C2.66675 13.24 3.52008 13.9867 5.64008 13.9867H11.0268C13.1468 14 14.0001 13.24 14.0001 11.36ZM14.0001 26.36V20.9733C14.0001 18.8533 13.1468 18 11.0268 18H5.64008C3.52008 18 2.66675 18.8533 2.66675 20.9733V26.36C2.66675 28.48 3.52008 29.3333 5.64008 29.3333H11.0268C13.1468 29.3333 14.0001 28.48 14.0001 26.36Z" stroke="white" stroke-width="1.5" stroke-linecap="round" stroke-linejoin="round"/>
<path d="M19.3333 23.3333H27.3333M23.3333 27.3333V19.3333" stroke="white" stroke-width="1.5" stroke-linecap="round"/>
</svg>
