<svg width="36" height="24" viewBox="0 0 36 24" fill="none" xmlns="http://www.w3.org/2000/svg">
<path d="M30.75 13.5C30.305 13.5 29.87 13.632 29.5 13.8792C29.13 14.1264 28.8416 14.4778 28.6713 14.889C28.501 15.3001 28.4564 15.7525 28.5432 16.189C28.63 16.6254 28.8443 17.0263 29.159 17.341C29.4737 17.6557 29.8746 17.87 30.311 17.9568C30.7475 18.0436 31.1999 17.999 31.611 17.8287C32.0222 17.6584 32.3736 17.37 32.6208 17C32.868 16.63 33 16.195 33 15.75C33 15.1533 32.7629 14.581 32.341 14.159C31.919 13.7371 31.3467 13.5 30.75 13.5ZM30.75 16.5C30.6017 16.5 30.4567 16.456 30.3333 16.3736C30.21 16.2912 30.1139 16.1741 30.0571 16.037C30.0003 15.9 29.9855 15.7492 30.0144 15.6037C30.0434 15.4582 30.1148 15.3246 30.2197 15.2197C30.3246 15.1148 30.4582 15.0434 30.6037 15.0144C30.7492 14.9855 30.9 15.0003 31.037 15.0571C31.1741 15.1139 31.2912 15.21 31.3736 15.3333C31.456 15.4567 31.5 15.6017 31.5 15.75C31.5 15.9489 31.421 16.1397 31.2803 16.2803C31.1397 16.421 30.9489 16.5 30.75 16.5ZM32.25 0H3.75C2.75544 0 1.80161 0.395088 1.09835 1.09835C0.395088 1.80161 7.81712e-08 2.75544 7.81712e-08 3.75V17.25C-0.000176363 18.1145 0.298338 18.9525 0.84502 19.6222C1.3917 20.2919 2.15298 20.7521 3 20.925V21.75C3 22.3467 3.23705 22.919 3.65901 23.341C4.08097 23.7629 4.65326 24 5.25 24C5.84674 24 6.41903 23.7629 6.84099 23.341C7.26295 22.919 7.5 22.3467 7.5 21.75V21H28.5V21.75C28.5 22.3467 28.7371 22.919 29.159 23.341C29.581 23.7629 30.1533 24 30.75 24C31.3467 24 31.919 23.7629 32.341 23.341C32.7629 22.919 33 22.3467 33 21.75V20.925C33.847 20.7521 34.6083 20.2919 35.155 19.6222C35.7017 18.9525 36.0002 18.1145 36 17.25V3.75C36 3.25754 35.903 2.76991 35.7145 2.31494C35.5261 1.85997 35.2499 1.44657 34.9016 1.09835C34.5534 0.75013 34.14 0.473907 33.6851 0.285451C33.2301 0.0969963 32.7425 0 32.25 0ZM6 21.75C6 21.9489 5.92098 22.1397 5.78033 22.2803C5.63968 22.421 5.44891 22.5 5.25 22.5C5.05109 22.5 4.86032 22.421 4.71967 22.2803C4.57902 22.1397 4.5 21.9489 4.5 21.75V21H6V21.75ZM25.5 19.5H3.75C3.28579 19.4987 2.83335 19.3538 2.4547 19.0853C2.07605 18.8168 1.78973 18.4377 1.635 18H25.5V19.5ZM25.5 16.5H1.5V4.5H25.5V16.5ZM25.5 3H1.635C1.78973 2.56234 2.07605 2.18325 2.4547 1.9147C2.83335 1.64616 3.28579 1.5013 3.75 1.5H25.5V3ZM31.5 21.75C31.5 21.9489 31.421 22.1397 31.2803 22.2803C31.1397 22.421 30.9489 22.5 30.75 22.5C30.5511 22.5 30.3603 22.421 30.2197 22.2803C30.079 22.1397 30 21.9489 30 21.75V21H31.5V21.75ZM34.5 17.25C34.5 17.8467 34.2629 18.419 33.841 18.841C33.419 19.2629 32.8467 19.5 32.25 19.5H27V1.5H32.25C32.8467 1.5 33.419 1.73705 33.841 2.15901C34.2629 2.58097 34.5 3.15326 34.5 3.75V17.25ZM22.755 14.25C22.9539 14.25 23.1447 14.171 23.2853 14.0303C23.426 13.8897 23.505 13.6989 23.505 13.5V7.5C23.505 7.30109 23.426 7.11032 23.2853 6.96967C23.1447 6.82902 22.9539 6.75 22.755 6.75C22.5561 6.75 22.3653 6.82902 22.2247 6.96967C22.084 7.11032 22.005 7.30109 22.005 7.5V13.5C22.005 13.6989 22.084 13.8897 22.2247 14.0303C22.3653 14.171 22.5561 14.25 22.755 14.25ZM32.25 9H29.25C29.0511 9 28.8603 9.07902 28.7197 9.21967C28.579 9.36032 28.5 9.55109 28.5 9.75C28.5 9.94891 28.579 10.1397 28.7197 10.2803C28.8603 10.421 29.0511 10.5 29.25 10.5H32.25C32.4489 10.5 32.6397 10.421 32.7803 10.2803C32.921 10.1397 33 9.94891 33 9.75C33 9.55109 32.921 9.36032 32.7803 9.21967C32.6397 9.07902 32.4489 9 32.25 9ZM32.25 3H29.25C29.0511 3 28.8603 3.07902 28.7197 3.21967C28.579 3.36032 28.5 3.55109 28.5 3.75C28.5 3.94891 28.579 4.13968 28.7197 4.28033C28.8603 4.42098 29.0511 4.5 29.25 4.5H32.25C32.4489 4.5 32.6397 4.42098 32.7803 4.28033C32.921 4.13968 33 3.94891 33 3.75C33 3.55109 32.921 3.36032 32.7803 3.21967C32.6397 3.07902 32.4489 3 32.25 3ZM32.25 6H29.25C29.0511 6 28.8603 6.07902 28.7197 6.21967C28.579 6.36032 28.5 6.55109 28.5 6.75C28.5 6.94891 28.579 7.13968 28.7197 7.28033C28.8603 7.42098 29.0511 7.5 29.25 7.5H32.25C32.4489 7.5 32.6397 7.42098 32.7803 7.28033C32.921 7.13968 33 6.94891 33 6.75C33 6.55109 32.921 6.36032 32.7803 6.21967C32.6397 6.07902 32.4489 6 32.25 6Z" fill="black"/>
</svg>
