<svg width="24" height="31" viewBox="0 0 24 31" fill="none" xmlns="http://www.w3.org/2000/svg">
<path d="M3.63636 30.5455H23.2727C23.6727 30.5455 24 30.2258 24 29.8351V24.1522V0.710359C24 0.319662 23.6727 0 23.2727 0H3.63636C1.62909 0 0 1.59121 0 3.5518V26.9937C0 28.9543 1.62909 30.5455 3.63636 30.5455ZM4.36364 1.42072H22.5455V23.4419H4.36364V1.42072ZM1.45455 3.5518C1.45455 2.62833 2.06545 1.84693 2.90909 1.54858V23.5129C2.37091 23.6195 1.87636 23.8539 1.45455 24.1664V3.5518ZM3.63636 24.8626H22.5455V26.2833H15.2727C14.8727 26.2833 14.5455 26.603 14.5455 26.9937C14.5455 27.3844 14.8727 27.704 15.2727 27.704H22.5455V29.1247H3.63636C2.43636 29.1247 1.45455 28.1658 1.45455 26.9937C1.45455 25.8216 2.43636 24.8626 3.63636 24.8626Z" fill="black"/>
</svg>
