<svg width="43" height="62" viewBox="0 0 43 62" fill="none" xmlns="http://www.w3.org/2000/svg">
<path d="M7.31005 13.8567C7.3 17.3977 8.66862 20.8037 11.1261 23.3532C13.5835 25.9027 16.9368 27.3957 20.4759 27.5158C20.815 27.485 21.185 27.485 21.4934 27.5158L7.31005 13.8567ZM7.31005 13.8567C7.31005 6.30249 13.415 0.166653 21 0.166653L7.31005 13.8567ZM21.5127 27.0154C21.1867 26.985 20.8107 26.9854 20.4627 27.0151C17.0646 26.8919 13.8464 25.455 11.4861 23.0062C9.11877 20.5502 7.80037 17.2692 7.81005 13.8581V13.8567C7.81005 6.5779 13.6919 0.666653 21 0.666653V0.666735L21.0091 0.666572C22.7392 0.635364 24.4585 0.945234 26.0689 1.57849C27.6792 2.21175 29.1491 3.15599 30.3946 4.3573C31.64 5.55861 32.6366 6.99347 33.3276 8.57995C34.0185 10.1664 34.3902 11.8735 34.4214 13.6036C34.4526 15.3337 34.1427 17.053 33.5095 18.6634C32.8762 20.2738 31.932 21.7436 30.7306 22.9891C29.5293 24.2345 28.0945 25.2312 26.508 25.9221C24.9302 26.6093 23.2331 26.9806 21.5127 27.0154ZM6.35476 56.5769L6.35367 56.5762C2.72722 54.1636 0.980469 51.029 0.980469 47.9545C0.980469 44.8799 2.72729 41.7375 6.35392 39.3095C10.5099 36.5542 16.0117 35.1615 21.5319 35.1615C27.0527 35.1615 32.5387 36.5545 36.6632 39.3091L36.6639 39.3096C40.2904 41.7223 42.0371 44.8568 42.0371 47.9314C42.0371 51.0062 40.29 54.1488 36.6627 56.577C32.5226 59.3471 27.0289 60.7475 21.5088 60.7475C15.9886 60.7475 10.4949 59.347 6.35476 56.5769Z" fill="white" stroke="white" stroke-linecap="round" stroke-linejoin="round"/>
</svg>
