<svg width="38" height="31" viewBox="0 0 38 31" fill="none" xmlns="http://www.w3.org/2000/svg">
<path d="M33.375 7.625H4.625C3.63044 7.625 2.67661 7.22991 1.97335 6.52665C1.27009 5.82339 0.875 4.86956 0.875 3.875C0.875 2.88044 1.27009 1.92661 1.97335 1.22335C2.67661 0.520088 3.63044 0.125 4.625 0.125H33.375C34.3696 0.125 35.3234 0.520088 36.0266 1.22335C36.7299 1.92661 37.125 2.88044 37.125 3.875C37.125 4.86956 36.7299 5.82339 36.0266 6.52665C35.3234 7.22991 34.3696 7.625 33.375 7.625ZM4.625 1.375C3.96196 1.375 3.32607 1.63839 2.85723 2.10723C2.38839 2.57607 2.125 3.21196 2.125 3.875C2.125 4.53804 2.38839 5.17392 2.85723 5.64277C3.32607 6.11161 3.96196 6.375 4.625 6.375H33.375C34.038 6.375 34.6739 6.11161 35.1428 5.64277C35.6116 5.17392 35.875 4.53804 35.875 3.875C35.875 3.21196 35.6116 2.57607 35.1428 2.10723C34.6739 1.63839 34.038 1.375 33.375 1.375H4.625ZM11.5 30.125H7.75C7.58424 30.125 7.42527 30.0591 7.30806 29.9419C7.19085 29.8247 7.125 29.6658 7.125 29.5V12C7.125 11.8342 7.19085 11.6753 7.30806 11.5581C7.42527 11.4408 7.58424 11.375 7.75 11.375H15.3875C15.4809 11.3747 15.5731 11.3953 15.6575 11.4353C15.7419 11.4753 15.8162 11.5337 15.875 11.6062C15.9347 11.6796 15.9769 11.7655 15.9985 11.8575C16.0202 11.9495 16.0207 12.0453 16 12.1375L12.125 29.6375C12.0932 29.7785 12.0136 29.9041 11.8997 29.993C11.7857 30.0819 11.6445 30.1285 11.5 30.125ZM8.375 28.875H11L14.625 12.625H8.375V28.875ZM29.625 30.125H25.875C25.7305 30.1285 25.5893 30.0819 25.4753 29.993C25.3614 29.9041 25.2818 29.7785 25.25 29.6375L21.3625 12.1375C21.3418 12.0453 21.3423 11.9495 21.364 11.8575C21.3856 11.7655 21.4278 11.6796 21.4875 11.6062C21.5463 11.5337 21.6206 11.4753 21.705 11.4353C21.7894 11.3953 21.8816 11.3747 21.975 11.375H29.625C29.7908 11.375 29.9497 11.4408 30.0669 11.5581C30.1842 11.6753 30.25 11.8342 30.25 12V29.5C30.25 29.6658 30.1842 29.8247 30.0669 29.9419C29.9497 30.0591 29.7908 30.125 29.625 30.125ZM26.375 28.875H29V12.625H22.75L26.375 28.875Z" fill="black"/>
</svg>
