<svg width="31" height="27" viewBox="0 0 31 27" fill="none" xmlns="http://www.w3.org/2000/svg">
<path d="M21.9751 0.523743C19.3355 0.523743 16.973 1.80708 15.5001 3.77583C14.7478 2.76785 13.7709 1.9491 12.6469 1.38459C11.5229 0.820073 10.2829 0.525326 9.02508 0.523743C4.548 0.523743 0.916748 4.16958 0.916748 8.67583C0.916748 10.4112 1.19383 12.0154 1.67508 13.5029C3.97925 20.7946 11.0813 25.155 14.5959 26.3508C15.0918 26.5258 15.9084 26.5258 16.4043 26.3508C19.9188 25.155 27.0209 20.7946 29.3251 13.5029C29.8063 12.0154 30.0834 10.4112 30.0834 8.67583C30.0834 4.16958 26.4522 0.523743 21.9751 0.523743Z" fill="#CD3636"/>
</svg>
