<svg width="38" height="39" viewBox="0 0 38 39" fill="none" xmlns="http://www.w3.org/2000/svg">
<path d="M37.0313 17.8125H19.8375V22.9312H32.0438C31.425 30.075 25.4813 33.1312 19.8563 33.1312C12.675 33.1312 6.37502 27.4687 6.37502 19.5C6.37502 11.8125 12.375 5.86875 19.875 5.86875C25.6688 5.86875 29.0625 9.5625 29.0625 9.5625L32.625 5.85C32.625 5.85 28.05 0.75 19.6875 0.75C9.03753 0.75 0.806274 9.75 0.806274 19.5C0.806274 28.9687 8.55002 38.25 19.9688 38.25C30 38.25 37.3125 31.3687 37.3125 21.2062C37.3125 19.05 37.0313 17.8125 37.0313 17.8125Z" fill="#2F82B4"/>
</svg>
